<?xml version="1.0" standalone="no"?>
<!DOCTYPE svg PUBLIC "-//W3C//DTD SVG 20010904//EN"
 "http://www.w3.org/TR/2001/REC-SVG-20010904/DTD/svg10.dtd">
<svg version="1.0" xmlns="http://www.w3.org/2000/svg"
 width="200" height="50" viewBox="0 0 648.000000 216.000000"
 preserveAspectRatio="xMidYMid meet">

<g transform="translate(0.000000,216.000000) scale(0.100000,-0.100000)"
fill="#000000" stroke="none">
<path d="M949 2010 c-49 -14 -79 -43 -124 -115 -64 -102 -88 -175 -80 -239 4
-28 12 -59 17 -69 5 -10 15 -53 23 -97 8 -44 19 -88 24 -99 25 -47 18 -51 -87
-51 l-98 0 -13 68 c-24 130 -48 187 -97 232 -106 98 -221 106 -329 24 -45 -34
-94 -134 -102 -205 -10 -105 55 -650 92 -769 8 -25 17 -65 20 -90 11 -72 45
-191 71 -241 45 -90 119 -129 205 -109 132 32 182 151 173 413 l-5 117 59 0
c33 0 79 7 102 15 23 8 46 15 50 15 4 0 10 -42 14 -93 7 -105 51 -289 86 -357
33 -66 89 -131 126 -146 109 -46 227 18 254 138 11 48 17 55 54 73 30 16 56
43 99 105 44 66 64 86 87 91 27 6 31 2 62 -50 43 -73 97 -104 182 -105 39 0
73 6 94 17 31 17 35 17 81 0 38 -13 57 -15 88 -7 32 8 45 6 82 -13 113 -59
232 -5 282 129 23 62 45 84 91 90 24 3 33 -4 60 -47 42 -63 85 -88 157 -90 33
-1 70 -9 91 -21 28 -15 61 -19 165 -22 l130 -4 107 54 108 54 32 -34 c95 -98
217 -98 338 -1 22 18 42 30 44 28 2 -2 19 -29 37 -59 37 -61 67 -89 113 -107
65 -24 143 -8 196 41 17 16 47 27 91 35 87 15 82 16 103 -24 38 -70 128 -104
213 -80 64 19 118 77 174 187 31 63 44 79 67 84 15 3 32 7 39 9 7 2 42 -29 78
-69 37 -42 80 -79 98 -86 36 -13 34 -12 102 -58 39 -26 59 -32 101 -32 36 0
71 -9 119 -31 102 -46 207 -70 316 -72 l95 -2 65 -58 c96 -88 138 -109 224
-115 119 -7 164 19 232 135 23 40 28 59 28 118 0 38 -6 100 -13 137 l-12 68
35 48 c86 121 135 279 136 438 0 132 -22 226 -81 350 -103 213 -306 369 -545
419 -117 24 -275 15 -378 -21 l-39 -14 -82 56 c-98 69 -167 94 -254 94 -79 0
-122 -19 -166 -74 -47 -58 -58 -82 -58 -130 -1 -43 40 -182 73 -248 24 -48 24
-49 -7 -38 -36 14 -109 12 -147 -4 -35 -14 -81 -63 -109 -115 l-17 -32 -37 40
c-80 89 -225 108 -392 52 l-93 -32 -30 25 c-29 24 -85 46 -121 46 -44 0 -126
-42 -170 -87 -53 -55 -108 -144 -108 -176 0 -14 -11 1 -31 41 -33 68 -78 107
-139 118 -20 4 -52 22 -75 44 -59 56 -100 73 -186 78 -63 4 -85 0 -135 -20
-47 -19 -66 -22 -96 -15 -49 12 -140 -14 -191 -54 l-38 -30 -35 30 c-78 69
-163 88 -241 56 -33 -14 -41 -14 -85 1 -66 22 -157 20 -212 -5 -25 -10 -65
-38 -89 -60 -40 -37 -46 -39 -58 -25 -21 25 -125 74 -172 80 -23 3 -61 1 -84
-5 -38 -10 -45 -9 -78 14 -68 46 -157 46 -225 1 -43 -28 -116 -120 -132 -167
-11 -31 -22 -37 -35 -16 -4 6 -9 98 -10 202 -5 306 -25 397 -110 476 -21 20
-53 41 -72 48 -38 12 -123 13 -162 1z m124 -188 c29 -31 35 -91 42 -392 3
-140 9 -258 13 -262 4 -3 18 -8 31 -10 32 -4 64 -57 56 -90 -5 -18 -17 -27
-49 -36 l-42 -11 3 -98 c2 -54 8 -117 13 -140 14 -60 25 -403 14 -403 -21 0
-72 106 -73 153 -1 15 -7 40 -15 55 -8 16 -21 112 -32 230 -17 193 -19 202
-39 202 -28 0 -192 -35 -227 -49 -15 -6 -61 -13 -101 -16 -41 -3 -87 -9 -103
-14 -32 -9 -58 -8 -92 3 l-24 8 7 -79 c13 -147 10 -396 -4 -428 l-13 -30 -15
30 c-22 40 -42 118 -49 185 -3 30 -11 71 -19 90 -29 77 -95 544 -97 691 -1 43
29 107 57 126 18 11 26 9 57 -12 47 -32 58 -75 64 -255 3 -80 7 -151 10 -158
3 -9 14 -5 38 15 34 26 40 27 168 30 73 2 169 5 213 7 44 3 96 5 116 5 l35 1
-7 58 c-4 31 -8 83 -8 115 -1 33 -7 73 -15 90 -8 18 -20 64 -27 102 -7 39 -19
85 -26 104 -18 42 -11 70 34 144 29 47 39 57 62 57 15 0 35 -8 44 -18z m3947
-19 c0 -5 10 -19 21 -33 l20 -25 -3 25 c-3 29 12 39 26 18 7 -11 -1 -27 -30
-62 -21 -25 -41 -46 -45 -46 -7 0 -19 37 -19 60 1 9 6 5 15 -10 13 -24 13 -24
12 18 -1 23 -5 42 -9 42 -5 0 -8 5 -8 10 0 11 20 14 20 3z m132 -49 c14 -5 6
-18 -45 -75 -34 -38 -65 -69 -68 -69 -3 0 -11 11 -17 25 -10 22 -7 29 40 80
28 31 56 53 62 50 6 -3 19 -8 28 -11z m42 -39 c3 -8 11 -12 19 -9 7 2 19 -6
26 -20 8 -14 19 -22 27 -19 28 10 13 -17 -25 -48 -22 -17 -61 -58 -88 -91 -43
-54 -48 -58 -60 -42 -7 10 -13 24 -13 31 0 7 34 49 76 93 42 44 73 80 67 80
-10 0 -98 -90 -131 -133 -20 -27 -21 -27 -31 -8 -6 11 -11 27 -11 35 0 16 116
146 130 146 4 0 10 -7 14 -15z m119 -101 c27 -10 21 -22 -37 -74 -29 -27 -70
-74 -91 -104 -21 -31 -41 -53 -45 -51 -4 3 -13 18 -20 34 -11 28 -10 34 25 80
44 61 124 133 139 126 6 -3 19 -8 29 -11z m55 -71 c2 -15 -12 -35 -48 -69 -28
-26 -68 -73 -90 -106 l-39 -58 -21 30 -22 30 36 48 c50 69 143 154 164 150 9
-2 18 -13 20 -25z m-20 -144 c-40 -40 -82 -86 -93 -101 -18 -25 -22 -26 -39
-13 -19 14 -18 16 19 70 21 31 63 78 93 106 54 49 56 50 74 32 18 -19 17 -21
-54 -94z m54 -25 c-37 -34 -81 -81 -97 -103 -25 -37 -30 -40 -43 -27 -14 13
-12 20 13 57 16 22 58 67 93 100 56 51 66 57 83 46 18 -11 14 -17 -49 -73z
m548 15 c0 -5 -24 -9 -52 -9 l-53 1 23 19 c19 15 28 17 52 8 17 -5 30 -14 30
-19z m-442 0 c2 -9 -19 -30 -52 -53 -30 -21 -76 -60 -101 -87 -42 -45 -65 -55
-65 -28 0 34 170 192 200 187 8 -2 16 -10 18 -19z m55 -55 l28 -26 -61 -36
c-33 -20 -85 -61 -115 -91 l-55 -54 -19 24 c-11 13 -20 28 -21 33 0 22 180
173 210 175 3 1 18 -11 33 -25z m435 10 c34 -10 4 -23 -70 -29 -46 -4 -103
-13 -127 -21 l-44 -13 33 34 c23 24 44 35 69 38 36 3 116 -1 139 -9z m-2772
-24 c31 0 64 -47 64 -90 0 -46 -32 -118 -63 -139 -19 -13 -18 -14 14 -28 75
-31 121 -104 105 -166 -5 -23 -68 -111 -96 -135 -26 -22 -168 -90 -175 -84 -3
4 -36 5 -72 4 -63 -3 -123 11 -123 29 0 5 -9 9 -20 9 -11 0 -29 5 -39 12 -15
9 -26 9 -47 0 -14 -7 -28 -11 -29 -10 -1 2 -10 17 -18 34 -9 17 -31 49 -49 71
-18 22 -38 49 -44 59 -9 15 -14 17 -26 7 -8 -7 -17 -10 -20 -8 -3 3 -29 -3
-57 -15 -28 -11 -60 -20 -71 -20 -24 0 -101 -39 -117 -60 -7 -8 -29 -50 -50
-93 -21 -42 -42 -75 -48 -74 -15 6 -7 54 16 98 10 21 19 51 19 67 0 26 -4 29
-57 42 -56 14 -58 16 -55 45 2 18 17 44 36 63 l33 34 47 -16 c63 -21 70 -20
83 12 60 145 73 168 111 194 20 13 21 17 7 28 -8 7 -15 18 -15 24 0 20 61 86
79 86 38 0 74 -68 86 -160 3 -25 16 -80 27 -123 19 -69 24 -77 42 -71 16 4 18
3 6 -5 -22 -15 4 -56 80 -119 98 -81 110 -86 225 -86 115 -1 164 17 211 79 66
87 -26 182 -162 168 -28 -3 -54 -1 -57 4 -12 19 24 52 76 68 57 19 91 45 113
87 30 58 10 91 -55 90 -45 -1 -136 -43 -150 -70 -6 -11 -13 -102 -16 -203 -6
-189 -16 -235 -41 -187 -6 13 -17 50 -24 83 -7 33 -17 64 -22 69 -4 6 -8 38
-8 71 0 39 -9 88 -25 134 l-24 72 35 38 c53 59 116 59 126 0 3 -17 10 -14 62
22 62 45 122 71 144 64 8 -3 20 -5 28 -5z m1587 -7 c4 -10 15 -29 27 -43 12
-16 29 -69 44 -140 37 -171 38 -174 72 -181 16 -4 23 -7 16 -8 -36 -3 -20 -36
64 -129 101 -112 150 -179 140 -190 -4 -4 -12 1 -17 10 -15 27 -71 62 -95 60
-14 -1 -28 8 -40 26 -9 15 -33 40 -52 57 -18 16 -48 50 -65 75 -16 25 -31 46
-32 48 -1 1 -16 -5 -33 -13 -31 -16 -44 -20 -112 -31 -19 -3 -56 -15 -82 -27
-44 -20 -52 -29 -93 -111 -25 -49 -57 -103 -71 -120 -25 -30 -26 -30 -21 -6
15 68 29 115 47 150 32 62 27 75 -30 88 l-49 11 -53 -53 c-37 -36 -72 -60
-112 -75 -73 -27 -181 -43 -241 -34 l-46 6 7 -43 c6 -34 4 -42 -7 -38 -7 2
-18 19 -23 36 -5 18 -13 32 -18 32 -11 0 -63 113 -78 171 -16 60 -41 119 -49
119 -4 0 -17 -22 -29 -48 -25 -54 -161 -201 -208 -224 -21 -10 -37 -12 -48 -6
-37 21 -100 164 -130 296 -9 41 -25 83 -36 95 -11 11 -20 28 -20 37 0 27 59
90 85 90 21 0 25 -7 35 -57 21 -110 52 -228 67 -258 19 -37 73 -95 89 -95 22
0 74 51 115 113 73 110 83 136 84 213 0 60 4 77 27 112 16 23 39 49 54 58 23
16 27 16 41 1 14 -14 13 -28 -11 -151 -24 -121 -26 -143 -17 -210 6 -42 22
-108 36 -148 14 -39 25 -72 25 -73 0 -4 128 16 175 26 58 13 120 46 153 82 38
40 23 61 -68 96 -44 17 -84 31 -90 31 -6 0 -33 11 -60 25 -95 48 -108 148 -28
222 32 30 161 88 228 103 63 14 137 0 147 -27 9 -23 -10 -29 -90 -31 -88 -2
-121 -9 -169 -33 -50 -25 -73 -61 -58 -88 13 -26 43 -41 147 -75 82 -27 159
-73 170 -102 5 -12 11 -10 33 11 l28 27 52 -19 c50 -18 52 -18 65 1 8 10 28
53 45 95 17 42 42 85 55 97 16 15 21 28 18 47 -4 19 4 40 26 73 17 26 31 51
31 56 0 16 28 8 33 -9z m-3191 -50 c15 -32 32 -85 39 -118 6 -33 22 -80 34
-105 13 -25 29 -65 36 -89 l13 -43 43 6 c32 4 43 2 43 -7 0 -14 -37 -52 -57
-58 -8 -3 1 -34 27 -98 22 -51 37 -97 34 -102 -16 -26 -42 -3 -87 76 -46 81
-49 84 -90 90 -27 4 -57 1 -86 -9 -24 -9 -50 -16 -58 -16 -36 0 -112 -43 -123
-69 -15 -37 -83 -134 -96 -138 -26 -9 -23 33 6 95 17 36 29 66 28 66 -2 1 -15
7 -30 14 -17 7 -28 19 -28 31 0 26 65 79 117 94 41 12 44 16 98 126 l56 113
-20 53 -20 53 29 46 c40 63 59 60 92 -11z m704 37 c18 0 18 -39 1 -46 -13 -5
-33 -30 -170 -216 l-57 -77 -4 -118 c-4 -80 -10 -129 -21 -151 -27 -54 -40
-52 -35 6 1 13 -4 22 -13 22 -28 0 -37 45 -26 129 9 68 8 83 -6 111 -19 36
-164 180 -182 180 -6 0 -15 9 -18 20 -3 11 -15 25 -26 30 -10 6 -19 15 -19 20
0 17 52 70 69 70 26 0 93 -35 117 -62 28 -30 113 -163 125 -196 l10 -25 25 34
c38 51 61 98 77 163 9 32 23 67 33 77 19 21 71 40 92 33 8 -2 20 -4 28 -4z
m3301 -30 c12 -18 6 -22 -73 -59 -47 -22 -108 -57 -135 -77 -68 -50 -65 -19 4
40 55 47 163 116 182 116 5 0 16 -9 22 -20z m411 2 c3 -10 -11 -11 -65 -6
-100 10 -113 24 -19 21 54 -1 81 -6 84 -15z m-218 -38 c-25 -7 -74 -19 -110
-24 -36 -6 -74 -13 -85 -16 -11 -3 -7 3 10 13 44 25 113 42 175 42 l55 0 -45
-15z m202 -6 c46 -14 45 -34 -3 -31 -66 3 -139 16 -139 24 0 4 17 10 38 12 20
2 43 4 51 5 7 1 31 -3 53 -10z m-457 -44 c-11 -9 -49 -31 -85 -50 -36 -19 -75
-41 -87 -50 -13 -9 -23 -14 -23 -12 0 3 27 24 59 47 74 51 191 108 136 65z
m354 -3 c19 -5 11 -9 -40 -19 -101 -21 -233 -90 -316 -167 -66 -60 -76 -66
-110 -63 l-38 3 85 85 c62 62 107 97 165 127 74 39 86 42 155 42 41 -1 86 -4
99 -8z m-263 -14 c-63 -40 -142 -106 -174 -145 -79 -96 -87 -104 -110 -100
-21 3 -21 6 21 68 64 95 124 146 194 165 32 9 63 18 68 20 19 7 20 4 1 -8z
m412 -22 c11 -10 -8 -17 -88 -31 -45 -8 -97 -21 -117 -29 -19 -8 -46 -15 -59
-15 -13 0 -24 -4 -24 -10 0 -5 -30 -29 -67 -53 -38 -24 -90 -67 -118 -95 l-50
-52 -17 23 c-25 31 -23 38 20 78 109 104 254 171 417 193 34 4 95 -1 103 -9z
m-661 -119 c-29 -40 -56 -80 -62 -89 -5 -8 -20 -18 -32 -22 -19 -5 -23 -3 -23
17 1 44 32 79 125 141 22 15 41 27 42 27 1 0 -21 -33 -50 -74z m656 54 c-8
-30 -17 -33 -106 -25 -89 8 -84 17 17 34 86 15 95 14 89 -9z m-263 -65 c0 -8
7 -15 15 -15 28 0 3 -29 -50 -59 -29 -16 -80 -55 -113 -85 l-60 -56 -16 25
c-16 24 -16 27 1 48 29 38 87 85 149 122 65 39 74 42 74 20z m58 -92 c15 -16
20 -29 13 -31 -28 -9 -159 -103 -190 -136 -19 -20 -38 -36 -43 -36 -4 0 -15
14 -24 32 l-17 32 56 52 c50 47 150 113 171 114 5 0 20 -12 34 -27z m37 -70
c21 -50 16 -62 -55 -114 -38 -28 -85 -68 -104 -90 -31 -37 -35 -39 -50 -23 -9
9 -23 29 -31 45 -15 28 -14 29 31 71 56 51 72 63 138 100 60 33 62 33 71 11z
m60 -108 l23 -24 -51 -33 c-29 -18 -78 -57 -110 -87 l-58 -55 -27 28 -27 27
60 56 c58 55 140 113 158 113 5 0 20 -11 32 -25z m41 -81 c-3 -7 -1 -16 4 -19
18 -11 11 -21 -31 -45 -23 -12 -66 -43 -96 -67 l-55 -45 -24 23 -24 23 42 44
c24 24 69 61 102 83 47 31 62 37 73 28 8 -7 12 -18 9 -25z m36 -62 c-9 -7 -8
-13 8 -27 22 -20 26 -35 10 -35 -6 0 -16 -4 -23 -10 -7 -5 -43 -32 -81 -61
l-69 -51 -26 27 -26 26 44 39 c48 44 138 100 161 100 11 0 12 -2 2 -8z m33
-102 c3 -5 1 -10 -6 -10 -7 0 -6 -8 5 -25 18 -27 20 -36 9 -34 -21 3 -24 -2
-12 -18 13 -15 11 -16 -13 -10 -14 4 -34 10 -45 14 -14 5 -12 -1 10 -26 39
-47 33 -57 -17 -27 -54 32 -60 32 -45 4 11 -20 7 -19 -23 7 -41 36 -40 39 46
95 63 41 80 47 91 30z"/>
<path d="M2481 1051 c-73 -127 -75 -130 -68 -137 8 -8 128 -6 175 2 34 7 42
18 17 28 -8 3 -15 12 -15 21 0 26 -40 143 -53 153 -9 7 -24 -12 -56 -67z"/>
<path d="M4721 1038 c-29 -49 -55 -98 -58 -108 -6 -24 35 -29 133 -16 67 10
75 13 61 25 -10 7 -17 19 -17 25 0 9 -57 156 -63 162 -1 2 -26 -38 -56 -88z"/>
<path d="M1546 1048 c-9 -13 -23 -47 -31 -75 -8 -27 -24 -58 -35 -68 -32 -29
-24 -38 28 -30 26 4 63 9 82 11 63 8 71 13 64 42 -11 45 -34 82 -50 82 -8 0
-21 14 -28 32 l-14 31 -16 -25z"/>
</g>
</svg>
