<?xml version="1.0" standalone="no"?>
<!DOCTYPE svg PUBLIC "-//W3C//DTD SVG 20010904//EN"
 "http://www.w3.org/TR/2001/REC-SVG-20010904/DTD/svg10.dtd">
<svg version="1.0" xmlns="http://www.w3.org/2000/svg"
 width="201" height="60" viewBox="0 0 970.000000 1024.000000"
 preserveAspectRatio="xMidYMid meet">

<g transform="translate(0.000000,1024.000000) scale(0.100000,-0.100000)"
fill="#000000" stroke="none">
<path d="M953 10228 c-14 -18 -932 -1604 -939 -1622 -6 -14 39 -16 418 -16
l424 0 155 268 155 267 201 3 202 2 39 -52 c21 -29 105 -151 186 -270 l149
-218 469 0 469 0 -111 163 c-61 89 -154 224 -206 300 l-94 137 217 0 c230 1
337 10 415 36 65 21 154 89 205 155 54 70 319 517 349 589 34 80 33 168 -2
209 -53 63 5 61 -1410 61 -1013 0 -1284 -3 -1291 -12z m1726 -369 c54 -19 44
-56 -59 -209 -66 -97 -91 -123 -139 -139 -35 -11 -1091 -17 -1091 -5 0 7 188
333 203 352 13 16 1038 18 1086 1z"/>
<path d="M3673 9422 c-260 -450 -473 -821 -473 -826 0 -4 568 -5 1263 -3 1377
4 1315 1 1498 62 144 48 286 163 391 317 23 35 160 268 304 519 270 472 292
519 281 601 -9 68 -61 122 -133 138 -22 6 -597 9 -1349 9 l-1310 0 -472 -817z
m2231 419 c32 -30 34 -77 5 -141 -11 -25 -84 -155 -162 -289 -207 -355 -273
-417 -467 -441 -111 -13 -960 -14 -960 0 0 5 114 210 252 455 l253 446 526 -3
527 -3 26 -24z"/>
<path d="M7174 10198 c144 -251 436 -770 436 -776 0 -4 -278 -191 -617 -417
l-616 -410 422 -3 421 -2 314 209 314 210 119 -209 118 -210 424 0 c334 0 422
3 418 13 -2 6 -106 191 -231 410 -124 219 -226 401 -226 405 0 4 275 189 611
412 l610 405 -420 3 -419 2 -304 -200 c-166 -110 -307 -200 -312 -201 -5 0
-59 89 -121 198 l-112 198 -427 3 -427 2 25 -42z m1318 -1155 c16 -14 18 -33
18 -146 0 -173 6 -167 -162 -167 -171 0 -168 -3 -168 163 0 172 -5 167 162
167 108 0 135 -3 150 -17z"/>
<path d="M8224 9007 c-2 -7 -3 -62 -2 -123 l3 -109 123 -3 122 -3 0 126 0 125
-120 0 c-90 0 -122 -3 -126 -13z m176 -30 c31 -15 39 -61 15 -87 -15 -17 -15
-21 0 -49 15 -31 15 -31 -9 -31 -17 0 -30 10 -45 36 -27 45 -55 43 -59 -4 -2
-24 -8 -32 -23 -32 -17 0 -19 8 -19 90 l0 90 58 0 c31 0 68 -6 82 -13z"/>
<path d="M8302 8933 c4 -20 54 -29 77 -14 23 15 2 31 -40 31 -33 0 -40 -3 -37
-17z"/>
<path d="M10 8074 c0 -8 4631 -8037 4645 -8052 9 -10 99 137 429 710 365 632
415 725 406 744 -6 11 -865 1501 -1909 3310 l-1898 3289 -836 3 c-461 1 -837
0 -837 -4z"/>
<path d="M2300 8073 c1 -5 160 -282 353 -618 l353 -610 1319 -5 c1258 -5 1322
-6 1370 -24 99 -37 135 -80 135 -160 0 -97 -62 -207 -276 -496 -72 -96 -156
-199 -188 -227 -63 -58 -154 -105 -234 -122 -36 -7 -287 -11 -777 -11 -399 0
-725 -3 -725 -6 0 -17 2176 -3801 2182 -3796 8 8 938 1619 945 1637 2 8 -165
306 -371 664 -207 358 -376 654 -376 656 0 3 159 5 353 5 362 1 488 8 621 35
378 78 704 325 978 741 95 144 953 1632 1005 1743 161 342 87 544 -217 591
-77 12 -6450 14 -6450 3z"/>
<path d="M6530 4680 l0 -30 60 0 60 0 0 -145 0 -145 40 0 40 0 0 145 0 145 60
0 60 0 0 30 0 30 -160 0 -160 0 0 -30z"/>
<path d="M6910 4535 l0 -175 40 0 40 0 1 128 0 127 37 -125 37 -125 42 -3 41
-3 17 58 c9 32 27 92 40 133 l23 75 1 -132 1 -133 40 0 40 0 0 175 0 175 -64
0 -65 0 -25 -84 c-14 -46 -26 -86 -26 -89 0 -3 -5 -18 -11 -34 -11 -27 -14
-22 -48 87 l-37 115 -62 3 -62 3 0 -176z"/>
</g>
</svg>
